<svg xmlns="http://www.w3.org/2000/svg" xmlns:xlink="http://www.w3.org/1999/xlink" viewBox="0 0 1921 946"><defs><style>.cls-1,.cls-18,.cls-19{fill:#9f5b6c;}.cls-2{font-size:38.12px;}.cls-17,.cls-2{font-family:MyriadPro-Regular, Myriad Pro;}.cls-3,.cls-4,.cls-5,.cls-6,.cls-7,.cls-8,.cls-9{font-family:AcuminVariableConcept, AcuminVariableConcept;}.cls-4{letter-spacing:0em;}.cls-5{letter-spacing:0em;}.cls-10,.cls-6{letter-spacing:-0.01em;}.cls-11,.cls-7{letter-spacing:-0.01em;}.cls-8{letter-spacing:-0.01em;}.cls-9{letter-spacing:-0.01em;}.cls-12{letter-spacing:0em;}.cls-13{letter-spacing:0em;}.cls-14{letter-spacing:-0.01em;}.cls-15{letter-spacing:0.03em;}.cls-16{letter-spacing:-0.01em;}.cls-18{letter-spacing:0.01em;}.cls-19{letter-spacing:0em;}.cls-20{fill:none;stroke:#9f5b6c;stroke-miterlimit:10;stroke-width:8px;}</style></defs><title>Asset 16</title><g id="Layer_2" data-name="Layer 2"><g id="Layer_1-2" data-name="Layer 1"><rect class="cls-1" x="1174" y="499" width="747" height="447" transform="translate(3095 1445) rotate(-180)"/><text class="cls-2" transform="translate(1278 165.86)">“<tspan class="cls-3" x="13.49" y="0"> </tspan><tspan class="cls-4" x="21.57" y="0">M</tspan><tspan class="cls-5" x="52.33" y="0">usic </tspan><tspan class="cls-6" x="122.51" y="0">g</tspan><tspan class="cls-3" x="143.59" y="0">i</tspan><tspan class="cls-7" x="152.5" y="0">v</tspan><tspan class="cls-3" x="170.46" y="0">es a soul </tspan><tspan class="cls-8" x="313.28" y="0">t</tspan><tspan class="cls-5" x="325.67" y="0">o the uni</tspan><tspan class="cls-7" x="466.7" y="0">v</tspan><tspan class="cls-3" x="484.66" y="0">ers</tspan><tspan class="cls-9" x="531.31" y="0">e</tspan><tspan class="cls-3" x="549.95" y="0" xml:space="preserve">,  </tspan><tspan class="cls-3"><tspan x="0" y="45.74" xml:space="preserve">   wings </tspan><tspan class="cls-10" x="126.85" y="45.74">t</tspan><tspan x="139.24" y="45.74">o the min</tspan><tspan class="cls-11" x="291.06" y="45.74">d</tspan><tspan class="cls-12" x="312.18" y="45.74">, </tspan><tspan x="0" y="91.48" xml:space="preserve">   flig</tspan><tspan class="cls-13" x="74.4" y="91.48">h</tspan><tspan class="cls-12" x="95.41" y="91.48">t </tspan><tspan class="cls-10" x="116.1" y="91.48">t</tspan><tspan x="128.49" y="91.48">o the ima</tspan><tspan class="cls-10" x="277.53" y="91.48">g</tspan><tspan x="298.61" y="91.48">in</tspan><tspan class="cls-13" x="328.68" y="91.48">a</tspan><tspan class="cls-12" x="346.9" y="91.48">tion </tspan><tspan x="0" y="137.22" xml:space="preserve">   and li</tspan><tspan class="cls-14" x="111.26" y="137.22">f</tspan><tspan x="121.9" y="137.22">e </tspan><tspan class="cls-10" x="149.08" y="137.22">t</tspan><tspan x="161.46" y="137.22">o e</tspan><tspan class="cls-11" x="209.57" y="137.22">v</tspan><tspan x="227.52" y="137.22">e</tspan><tspan class="cls-15" x="246.62" y="137.22">r</tspan><tspan x="260.03" y="137.22">ythin</tspan><tspan class="cls-16" x="341.83" y="137.22">g</tspan><tspan x="362.57" y="137.22">. </tspan><tspan class="cls-17" x="378.54" y="137.22">”</tspan><tspan class="cls-12" x="392.03" y="137.22"> </tspan><tspan x="0" y="228.71" xml:space="preserve">  - </tspan><tspan class="cls-18" x="35.94" y="228.71">N</tspan><tspan class="cls-1" x="61.41" y="228.71">i</tspan><tspan class="cls-19" x="70.32" y="228.71">r</tspan><tspan class="cls-1" x="82.94" y="228.71">mana</tspan></tspan></text><line class="cls-20" x1="1566" y1="92" x2="1921" y2="92"/><line class="cls-20" x1="1632" y1="55" x2="1921" y2="55"/><rect class="cls-1" x="14" y="25" width="1205" height="743" transform="translate(1233 793) rotate(-180)"/><image width="1120" height="700" transform="translate(1 0) scale(1.07 1.07)" xlink:href="../../Mockup/Nirmana Music Online/Nisa Fitrianti/Assets Gambar untuk Ai/12.jpg"/><image width="655" height="368" transform="translate(1147 477) scale(1.18)" xlink:href="../../Mockup/Nirmana Music Online/Nisa Fitrianti/Assets Gambar untuk Ai/11.jpg"/><line class="cls-20" y1="829" x2="1018" y2="829"/><line class="cls-20" x1="1" y1="858" x2="599" y2="858"/></g></g></svg>