<svg xmlns="http://www.w3.org/2000/svg" xmlns:xlink="http://www.w3.org/1999/xlink" viewBox="0 0 1864.5 1249"><defs><style>.cls-1,.cls-27{fill:none;}.cls-2{fill:#9f5b6c;}.cls-3{clip-path:url(#clip-path);}.cls-4{font-size:50px;}.cls-28,.cls-4{font-family:ErasITC-Bold, Eras Bold ITC;}.cls-5{font-size:30.8px;}.cls-30,.cls-5{font-family:MyriadPro-Regular, Myriad Pro;}.cls-6{letter-spacing:-0.03em;}.cls-7{letter-spacing:0em;}.cls-8{letter-spacing:-0.01em;}.cls-9{letter-spacing:-0.01em;}.cls-10{letter-spacing:-0.01em;}.cls-11{letter-spacing:-0.01em;}.cls-12{letter-spacing:0em;}.cls-13{letter-spacing:-0.01em;}.cls-14{letter-spacing:-0.01em;}.cls-15{letter-spacing:0.03em;}.cls-16{letter-spacing:-0.01em;}.cls-17{letter-spacing:0.01em;}.cls-18{letter-spacing:-0.01em;}.cls-19{letter-spacing:0em;}.cls-20{letter-spacing:0em;}.cls-21{letter-spacing:-0.01em;}.cls-22{letter-spacing:0em;}.cls-23{letter-spacing:0.03em;}.cls-24{letter-spacing:-0.04em;}.cls-25{letter-spacing:-0.07em;}.cls-26{letter-spacing:-0.01em;}.cls-27{stroke:#9f5b6c;stroke-miterlimit:10;stroke-width:15px;}.cls-28{font-size:42.35px;}.cls-29{fill:#a05b6c;}.cls-30{font-size:25.41px;}.cls-31{letter-spacing:0em;}.cls-32{letter-spacing:-0.01em;}.cls-33{letter-spacing:-0.01em;}.cls-34{letter-spacing:0em;}.cls-35{letter-spacing:-0.01em;}.cls-36{letter-spacing:0.01em;}.cls-37{letter-spacing:0em;}.cls-38{letter-spacing:-0.02em;}.cls-39{letter-spacing:-0.02em;}.cls-40{letter-spacing:0em;}.cls-41{letter-spacing:0em;}.cls-42{letter-spacing:-0.01em;}.cls-43{letter-spacing:-0.01em;}.cls-44{letter-spacing:-0.01em;}.cls-45{letter-spacing:-0.01em;}</style><clipPath id="clip-path"><rect class="cls-1" x="1171.5" y="271" width="540" height="480" transform="translate(2883 1022) rotate(-180)"/></clipPath></defs><title>bagian2</title><g id="Layer_2" data-name="Layer 2"><g id="Layer_1-2" data-name="Layer 1"><rect class="cls-2" x="681.5" y="452" width="490" height="737" transform="translate(1853 1641) rotate(-180)"/><g class="cls-3"><image width="540" height="783" transform="matrix(-1, 0, 0, 1, 1711.5, 0)" xlink:href="../../Mockup/Nirmana Music Online/Nisa Fitrianti/Assets Gambar untuk Ai/7.jpg"/></g><image width="564" height="845" transform="translate(729.3 479) scale(0.88 0.82)" xlink:href="../../Mockup/Nirmana Music Online/Nisa Fitrianti/Assets Gambar untuk Ai/9.jpg"/><text class="cls-4" transform="translate(0.87 413.5)"><tspan class="cls-2">Listen to music you love</tspan><tspan class="cls-5"><tspan class="cls-6" x="0" y="73.91">F</tspan><tspan class="cls-7" x="14.2" y="73.91">ind new l</tspan><tspan class="cls-8" x="131.38" y="73.91">o</tspan><tspan class="cls-9" x="148.07" y="73.91">v</tspan><tspan x="162.58" y="73.91">es and old f</tspan><tspan class="cls-10" x="309.63" y="73.91">a</tspan><tspan class="cls-11" x="324.23" y="73.91">v</tspan><tspan x="338.73" y="73.91">ou</tspan><tspan class="cls-12" x="372.61" y="73.91">r</tspan><tspan class="cls-7" x="382.8" y="73.91">i</tspan><tspan class="cls-13" x="390.01" y="73.91">t</tspan><tspan x="400.02" y="73.91">es</tspan><tspan x="0" y="110.87">Dis</tspan><tspan class="cls-13" x="39.91" y="110.87">c</tspan><tspan class="cls-14" x="53.52" y="110.87">o</tspan><tspan class="cls-11" x="70.22" y="110.87">v</tspan><tspan x="84.72" y="110.87">er the pe</tspan><tspan class="cls-15" x="198.95" y="110.87">r</tspan><tspan class="cls-16" x="209.94" y="110.87">f</tspan><tspan x="218.53" y="110.87">e</tspan><tspan class="cls-17" x="233.96" y="110.87">c</tspan><tspan class="cls-7" x="248.16" y="110.87">t pl</tspan><tspan class="cls-10" x="289.67" y="110.87">a</tspan><tspan x="304.27" y="110.87">ylist or make </tspan><tspan class="cls-11" x="472.6" y="110.87">y</tspan><tspan x="486.8" y="110.87">our </tspan><tspan class="cls-8" x="537.27" y="110.87">o</tspan><tspan x="553.97" y="110.87">wn, </tspan><tspan x="0" y="147.83">and b</tspan><tspan class="cls-11" x="73.36" y="147.83">r</tspan><tspan class="cls-8" x="83.12" y="147.83">o</tspan><tspan class="cls-18" x="99.81" y="147.83">w</tspan><tspan x="122.29" y="147.83">se cu</tspan><tspan class="cls-19" x="187.21" y="147.83">r</tspan><tspan class="cls-20" x="197.13" y="147.83">a</tspan><tspan class="cls-13" x="211.85" y="147.83">t</tspan><tspan x="221.86" y="147.83">ed </tspan><tspan class="cls-13" x="261.19" y="147.83">c</tspan><tspan x="274.8" y="147.83">olle</tspan><tspan class="cls-17" x="321.67" y="147.83">c</tspan><tspan class="cls-7" x="335.87" y="147.83">tions </tspan><tspan class="cls-14" x="405.99" y="147.83">b</tspan><tspan x="423.3" y="147.83">y gen</tspan><tspan class="cls-11" x="494.07" y="147.83">r</tspan><tspan class="cls-21" x="503.83" y="147.83">e</tspan><tspan x="518.89" y="147.83">.</tspan><tspan class="cls-19" x="0" y="184.78">P</tspan><tspan class="cls-22" x="16.23" y="184.78">l</tspan><tspan class="cls-10" x="23.5" y="184.78">a</tspan><tspan x="38.1" y="184.78">y e</tspan><tspan class="cls-11" x="74.56" y="184.78">v</tspan><tspan class="cls-22" x="89.06" y="184.78">e</tspan><tspan class="cls-23" x="104.49" y="184.78">r</tspan><tspan class="cls-22" x="115.33" y="184.78">ything f</tspan><tspan class="cls-11" x="214.16" y="184.78">r</tspan><tspan class="cls-7" x="223.92" y="184.78">om the</tspan><tspan class="cls-24" x="315.76" y="184.78"> </tspan><tspan class="cls-25" x="321.02" y="184.78">T</tspan><tspan class="cls-7" x="334.14" y="184.78">op 10 </tspan><tspan class="cls-13" x="0" y="221.74">t</tspan><tspan class="cls-7" x="10.01" y="221.74">o unsi</tspan><tspan class="cls-13" x="86.91" y="221.74">g</tspan><tspan class="cls-22" x="103.94" y="221.74">ned a</tspan><tspan class="cls-17" x="175.2" y="221.74">c</tspan><tspan class="cls-7" x="189.4" y="221.74">ts on all </tspan><tspan class="cls-9" x="294.75" y="221.74">y</tspan><tspan class="cls-7" x="308.95" y="221.74">our devi</tspan><tspan class="cls-13" x="414.24" y="221.74">c</tspan><tspan x="427.85" y="221.74">e</tspan><tspan class="cls-26" x="443.28" y="221.74">s</tspan><tspan x="455.14" y="221.74">.</tspan></tspan></text><line class="cls-27" x1="0.5" y1="671.5" x2="335.5" y2="671.5"/><line class="cls-27" y1="350.5" x2="218.5" y2="350.5"/><text class="cls-28" transform="translate(1457.2 1016.37)"><tspan class="cls-29">Always with you</tspan><tspan class="cls-30"><tspan class="cls-31" x="9.22" y="60.98">D</tspan><tspan class="cls-32" x="26.25" y="60.98">o</tspan><tspan x="40.02" y="60.98">wnload </tspan><tspan class="cls-33" x="124.73" y="60.98">y</tspan><tspan x="136.44" y="60.98">our music and take it</tspan><tspan x="108.72" y="91.47" xml:space="preserve"> f</tspan><tspan class="cls-33" x="121.52" y="91.47">r</tspan><tspan x="129.58" y="91.47">om </tspan><tspan class="cls-33" x="170.1" y="91.47">y</tspan><tspan x="181.82" y="91.47">our mo</tspan><tspan class="cls-31" x="258.6" y="91.47">r</tspan><tspan class="cls-34" x="267.01" y="91.47">ning run</tspan><tspan x="-42.99" y="121.96"> </tspan><tspan class="cls-35" x="-37.6" y="121.96">t</tspan><tspan x="-29.35" y="121.96">o dinner out with </tspan><tspan class="cls-36" x="159.18" y="121.96">N</tspan><tspan x="176.15" y="121.96">i</tspan><tspan class="cls-37" x="182.1" y="121.96">r</tspan><tspan x="190.5" y="121.96">mana </tspan><tspan class="cls-38" x="255.68" y="121.96">P</tspan><tspan class="cls-33" x="268.79" y="121.96">r</tspan><tspan x="276.84" y="121.96">emium.</tspan><tspan x="48.99" y="152.45"> </tspan><tspan class="cls-39" x="54.37" y="152.45">A</tspan><tspan class="cls-40" x="69.39" y="152.45">v</tspan><tspan class="cls-41" x="81.51" y="152.45">ailable on all </tspan><tspan class="cls-42" x="219.57" y="152.45">y</tspan><tspan class="cls-34" x="231.29" y="152.45">our devi</tspan><tspan class="cls-35" x="318.15" y="152.45">c</tspan><tspan x="329.38" y="152.45">e</tspan><tspan class="cls-43" x="342.11" y="152.45">s</tspan><tspan class="cls-41" x="351.9" y="152.45">,</tspan><tspan x="93.6" y="182.94" xml:space="preserve"> all the tim</tspan><tspan class="cls-44" x="204.79" y="182.94">e</tspan><tspan x="217.21" y="182.94">, e</tspan><tspan class="cls-33" x="240.58" y="182.94">v</tspan><tspan x="252.55" y="182.94">en offlin</tspan><tspan class="cls-45" x="339.47" y="182.94">e</tspan><tspan x="351.89" y="182.94">.</tspan></tspan></text><line class="cls-27" x1="1332" y1="956.5" x2="1861.5" y2="956.5"/><line class="cls-27" x1="1646" y1="1241.5" x2="1864.5" y2="1241.5"/></g></g></svg>